<svg width="100" height="24" viewBox="0 0 100 24" fill="none" xmlns="http://www.w3.org/2000/svg">
<path d="M7.17188 18.0938H0V0.9375H7.17188V4.53125H2.95312V7.84375H6.76562V11.4375H2.95312V14.5312H7.17188V18.0938Z" fill="currentColor"/>
<path d="M10.8438 0.9375H14.75V18.0938H10.8438V0.9375Z" fill="currentColor"/>
<path d="M24.7617 18.0938L20.4648 11.8594C21.3242 11.25 21.9023 10.2812 21.9023 9.03125C21.9023 6.6875 20.082 4.875 17.7461 4.875C15.4102 4.875 13.5898 6.6875 13.5898 9.03125C13.5898 10.2812 14.168 11.25 15.0273 11.8594L10.7305 18.0938H14.9883L17.7461 13.6094L20.5039 18.0938H24.7617ZM17.7461 11.5C16.2852 11.5 15.1016 10.4062 15.1016 8.96875C15.1016 7.53125 16.2852 6.40625 17.7461 6.40625C19.207 6.40625 20.3906 7.53125 20.3906 8.96875C20.3906 10.4062 19.207 11.5 17.7461 11.5Z" fill="currentColor"/>
<path d="M32.5781 0.9375V18.0938H28.6719V0.9375H32.5781Z" fill="currentColor"/>
<path d="M43.3594 4.5V0.9375H36.0781V18.0938H39.9844V10.5312L43.7656 18.0938H47.3281L42.1094 9.15625C43.7031 8.4375 44.8594 7.03125 44.8594 5.15625C44.8594 4.71875 44.7812 4.3125 44.6094 3.9375L46.8906 0.9375H43.3594V4.5ZM39.9844 5.375C39.9844 6.75 41.0469 7.8125 42.4219 7.8125C42.75 7.8125 43.0781 7.73438 43.3438 7.59375L42.3906 5.375H39.9844V5.375Z" fill="currentColor"/>
<path d="M57.4375 14.5V18.0938H50.1562V0.9375H57.4375V4.5H54.0625V7.84375H57.0312V11.4062H54.0625V14.5H57.4375Z" fill="currentColor"/>
<path d="M59.1562 0.9375H63.0625V18.0938H59.1562V0.9375Z" fill="currentColor"/>
<path d="M73.8438 0.9375V18.0938H70.0938L66.4688 3.65625V18.0938H62.5625V0.9375H66.3125L69.9375 15.375V0.9375H73.8438Z" fill="currentColor"/>
<path d="M80.6875 0.9375L85.5625 12.8438L90.4375 0.9375H94.6875L87.75 18.0938H83.3438L76.4062 0.9375H80.6875Z" fill="currentColor"/>
<path fill-rule="evenodd" clip-rule="evenodd" d="M95.5312 24V0H100V24H95.5312Z" fill="#00B67A"/>
</svg>