<svg xmlns="http://www.w3.org/2000/svg" viewBox="0 0 200 40" width="200" height="40"><path fill="currentColor" d="M10.3 34.2h6.4V5.8h-6.4v28.4zM26.8 34.2h6.3V5.8h-6.3v28.4zM43.2 34.2h6.4V5.8h-6.4v28.4zM59.6 34.2h6.4V5.8h-6.4v28.4zM76 34.2h6.4V5.8H76v28.4zM92.5 34.2h6.4V5.8h-6.4v28.4zM108.9 34.2h6.4V5.8h-6.4v28.4zM125.3 34.2h6.4V5.8h-6.4v28.4zM141.8 34.2h6.3V5.8h-6.3v28.4zM158.2 34.2h6.4V5.8h-6.4v28.4zM174.6 34.2h6.4V5.8h-6.4v28.4zM0 20c0-11 9-20 20-20s20 9 20 20-9 20-20 20S0 31 0 20zm60 0c0-11 9-20 20-20s20 9 20 20-9 20-20 20-20-9-20-20zm60 0c0-11 9-20 20-20s20 9 20 20-9 20-20 20-20-9-20-20z"/></svg>