<svg xmlns="http://www.w3.org/2000/svg" viewBox="0 0 200 25" width="200" height="25"><path fill="currentColor" d="M22.5 12.5c0-3.8 2.6-6.3 6.3-6.3h2.3v12.5h-2.3c-3.7 0-6.3-2.5-6.3-6.2zM33.8 0h-14C8.8 0 0 8.6 0 12.5S8.8 25 19.8 25h14c11 0 19.8-8.6 19.8-12.5S44.8 0 33.8 0zM57 24.4l-4.8-9H49v9H44V0h10.1c4.3 0 7.2 2.3 7.2 5.8 0 2.7-1.7 4.5-4.2 5.3l5.3 9.3H57zM49 8.8h3.3c1.9 0 3.1-.9 3.1-2.6s-1.2-2.6-3.1-2.6H49v5.2zm25.7 15.6L70 15.4h-3.2v9H62V0h10.1c4.3 0 7.2 2.3 7.2 5.8 0 2.7-1.7 4.5-4.2 5.3l5.3 9.3h-6.5zm-4.8-15.6h3.3c1.9 0 3.1-.9 3.1-2.6s-1.2-2.6-3.1-2.6h-3.3v5.2zM89.6 0h-7.5v24.4h7.5V0zm16.4 0v24.4h7.6V0h-7.6zm16.6 20.8L118 0h-7.5l9.2 24.4h7.4zM136 0h-7.5v24.4h7.5V0zm20.4 9.1c-2.2-1.9-4.2-3.1-4.2-4.8s.9-2.5 2.6-2.5c1.5 0 2.8.8 3.8 2.3l4.6-3.7C161.7.9 158.7 0 155.2 0c-4.7 0-7.6 3-7.6 6.7 0 3.3 2.2 5.2 5.1 7.4 2.4 1.8 3.7 3 3.7 4.7s-1 2.6-2.9 2.6c-1.9 0-3.5-.9-4.7-2.7l-4.7 3.8c1.8 2.8 5.1 4.2 9.1 4.2 5.1 0 8.2-3.1 8.2-7.2.1-3.6-2.4-5.7-5.3-7.7zm24.4-9.1V24.4h7.5V0h-7.5zm14.2 24.4h7.6V0h-7.6v24.4z"/></svg>