<svg xmlns="http://www.w3.org/2000/svg" viewBox="0 0 200 30" width="200" height="30"><path fill="currentColor" d="M0 23.3h6.5V6.7H0v16.6zm9.6-11L15.8 0h7.7l-6.3 12.4L23.7 0h7.7L25.1 12.3 31.4 0h7.2l-8.7 16.6V30h-6.5V13.3L14.8 30H8.3L17 12.3 9.6 0H2.4l7.2 12.3zM40.5 30h6.5V0h-6.5v30zm18.9-11.1c0-4.3-3.2-7.2-7.8-7.2s-7.8 2.9-7.8 7.2c0 4.3 3.2 7.2 7.8 7.2s7.8-2.9 7.8-7.2zm-14.3 0c0-5.7 4.3-9.9 14.3-9.9s14.3 4.3 14.3 9.9c0 5.7-4.3 9.9-14.3 9.9s-14.3-4.2-14.3-9.9zM71.3 30h6.5V0h-6.5v30zm18.6-20.2h-9.2v6.7h8.1v5.8h-8.1v7.7h9.5V30h-16V0h15.7v9.8zM104.4 30h6.5V18.1l8.2 11.9h7.5l-8.7-12.6 8.4-11.6h-7.2l-8.2 11.2V0h-6.5v30zm29.6-11.1c0-4.3-3.2-7.2-7.8-7.2s-7.8 2.9-7.8 7.2c0 4.3 3.2 7.2 7.8 7.2s7.8-2.9 7.8-7.2zm-14.3 0c0-5.7 4.3-9.9 14.3-9.9s14.3 4.3 14.3 9.9c0 5.7-4.3 9.9-14.3 9.9s-14.3-4.2-14.3-9.9zM145.7 30h6.5V0h-6.5v30zm15.4-9.8h9.2V9.8h-9.2V0h15.7v30h-6.5v-9.8zM175.8 30h6.5V0h-6.5v30zm11.4 0h6.5l-4.4-9.5h10.6V14h-10L193.7 3h-6.5l-3.7 8.1-3.7-8.1h-6.5l10.1 10.5-10.4 16.5h6.5l4.7-7.8 4.6 7.8z"/></svg>